<svg width="12" height="12" viewBox="0 0 12 12" fill="none" xmlns="http://www.w3.org/2000/svg">
<path fill-rule="evenodd" clip-rule="evenodd" d="M5.37402 11.0309C5.21781 10.8747 5.21781 10.6214 5.37402 10.4652L10.4652 5.37401C10.6214 5.2178 10.8747 5.2178 11.0309 5.37401C11.1871 5.53022 11.1871 5.78349 11.0309 5.9397L5.9397 11.0309C5.78349 11.1871 5.53023 11.1871 5.37402 11.0309Z" fill="white"/>
<path fill-rule="evenodd" clip-rule="evenodd" d="M5.9397 11.0309C5.78349 11.1871 5.53023 11.1871 5.37402 11.0309L0.282849 5.9397C0.126639 5.78349 0.126639 5.53022 0.282849 5.37401C0.439058 5.2178 0.692325 5.2178 0.848534 5.37401L5.9397 10.4652C6.09591 10.6214 6.09591 10.8747 5.9397 11.0309Z" fill="white"/>
</svg>
