<svg width="14" height="20" viewBox="0 0 14 20" fill="none" xmlns="http://www.w3.org/2000/svg">
<path fill-rule="evenodd" clip-rule="evenodd" d="M0.5 2C0.5 1.17157 1.17157 0.5 2 0.5H10C10.6531 0.5 11.2087 0.917404 11.4146 1.5L12 1.5C12.8284 1.5 13.5 2.17157 13.5 3V4C13.5 4.82843 12.8284 5.5 12 5.5H11.4146C11.2087 6.0826 10.6531 6.5 10 6.5H7V7.5H8C8.82843 7.5 9.5 8.17157 9.5 9C9.5 9.82843 8.82843 10.5 8 10.5H7.38889L12.7747 17.4246L11.9853 18.0385L7 11.6288V20H6V11.6667L0.8 18.6L0 18L5.625 10.5H5C4.17157 10.5 3.5 9.82843 3.5 9C3.5 8.17157 4.17157 7.5 5 7.5H6V6.5H2C1.17157 6.5 0.5 5.82843 0.5 5V2ZM11.5 4.5H12C12.2761 4.5 12.5 4.27614 12.5 4V3C12.5 2.72386 12.2761 2.5 12 2.5H11.5V4.5ZM10.3533 1.64619C9.84859 1.88771 9.5 2.40315 9.5 3V4C9.5 4.59685 9.84859 5.11229 10.3533 5.35381C10.2628 5.44414 10.1379 5.5 10 5.5H2C1.72386 5.5 1.5 5.27614 1.5 5V2C1.5 1.72386 1.72386 1.5 2 1.5H10C10.1379 1.5 10.2628 1.55586 10.3533 1.64619ZM4 3V2H5V3H4ZM5 8.5C4.72386 8.5 4.5 8.72386 4.5 9C4.5 9.27614 4.72386 9.5 5 9.5H8C8.27614 9.5 8.5 9.27614 8.5 9C8.5 8.72386 8.27614 8.5 8 8.5H5Z" fill="#536B4E"/>
</svg>
