<svg width="14" height="18" viewBox="0 0 14 18" fill="none" xmlns="http://www.w3.org/2000/svg">
<path fill-rule="evenodd" clip-rule="evenodd" d="M13 1H1V17H13V1ZM1 0C0.447715 0 0 0.447716 0 1V17C0 17.5523 0.447716 18 1 18H13C13.5523 18 14 17.5523 14 17V1C14 0.447715 13.5523 0 13 0H1Z" fill="#536B4E"/>
<path fill-rule="evenodd" clip-rule="evenodd" d="M9.99995 9.16494L8.89099 8.91428L8.55359 10L7.01046 7.32722L8.45682 6.49217L9.99995 9.16494Z" fill="#536B4E"/>
<path fill-rule="evenodd" clip-rule="evenodd" d="M3.99993 9.24502L5.04715 9.10129L5.44629 10.0801L6.74245 7.83506L5.29609 7L3.99993 9.24502Z" fill="#536B4E"/>
<path fill-rule="evenodd" clip-rule="evenodd" d="M3 11.5C3 11.2239 3.22386 11 3.5 11H7.5C7.77614 11 8 11.2239 8 11.5C8 11.7761 7.77614 12 7.5 12H3.5C3.22386 12 3 11.7761 3 11.5Z" fill="#536B4E"/>
<path fill-rule="evenodd" clip-rule="evenodd" d="M9 11.5C9 11.2239 9.22386 11 9.5 11H10.5C10.7761 11 11 11.2239 11 11.5C11 11.7761 10.7761 12 10.5 12H9.5C9.22386 12 9 11.7761 9 11.5Z" fill="#536B4E"/>
<path fill-rule="evenodd" clip-rule="evenodd" d="M3 13.5C3 13.2239 3.22386 13 3.5 13H10.5C10.7761 13 11 13.2239 11 13.5C11 13.7761 10.7761 14 10.5 14H3.5C3.22386 14 3 13.7761 3 13.5Z" fill="#536B4E"/>
<path fill-rule="evenodd" clip-rule="evenodd" d="M5 15.5C5 15.2239 5.22386 15 5.5 15H8.5C8.77614 15 9 15.2239 9 15.5C9 15.7761 8.77614 16 8.5 16H5.5C5.22386 16 5 15.7761 5 15.5Z" fill="#536B4E"/>
<path fill-rule="evenodd" clip-rule="evenodd" d="M7 7C8.10457 7 9 6.10457 9 5C9 3.89543 8.10457 3 7 3C5.89543 3 5 3.89543 5 5C5 6.10457 5.89543 7 7 7ZM7 8C8.65685 8 10 6.65685 10 5C10 3.34315 8.65685 2 7 2C5.34315 2 4 3.34315 4 5C4 6.65685 5.34315 8 7 8Z" fill="#536B4E"/>
</svg>
