<svg width="17" height="24" viewBox="0 0 17 24" fill="none" xmlns="http://www.w3.org/2000/svg">
<path d="M8.47387 -2.65833e-08C3.79094 -2.65833e-08 2.12666e-07 3.79094 2.12666e-07 8.47387C2.12666e-07 13.1568 8.47387 24 8.47387 24C8.47387 24 16.9477 13.1289 16.9477 8.47387C16.9477 3.81882 13.1568 -2.65833e-08 8.47387 -2.65833e-08ZM4.23693 8.66899C4.23693 6.32753 6.1324 4.43206 8.47387 4.43206C10.8153 4.43206 12.7108 6.32753 12.7108 8.66899C12.7108 11.0105 10.8153 12.9059 8.47387 12.9059C6.1324 12.9059 4.23693 11.0105 4.23693 8.66899Z" fill="#666666"/>
</svg>
