<svg width="14" height="18" viewBox="0 0 14 18" fill="none" xmlns="http://www.w3.org/2000/svg">
<path fill-rule="evenodd" clip-rule="evenodd" d="M14 4L14 18H1C0.447716 18 -2.41411e-08 17.5523 0 17L7.43094e-07 0L10 4.37114e-07L14 4ZM9.58579 1L1 1L1 17H13L13 4.41421L9.58579 1Z" fill="#536B4E"/>
<path fill-rule="evenodd" clip-rule="evenodd" d="M9 4V5.68248e-07L10 4.37114e-07V4H9Z" fill="#536B4E"/>
<path fill-rule="evenodd" clip-rule="evenodd" d="M9 4H14V5H9V4Z" fill="#536B4E"/>
<path fill-rule="evenodd" clip-rule="evenodd" d="M9 8H5V10H9V8ZM4 7V11H10V7H4Z" fill="#536B4E"/>
<path fill-rule="evenodd" clip-rule="evenodd" d="M3 8H11L7 4L3 8ZM5.41421 7H8.58579L7 5.41421L5.41421 7Z" fill="#536B4E"/>
<path fill-rule="evenodd" clip-rule="evenodd" d="M3 12.5C3 12.2239 3.22386 12 3.5 12H7.5C7.77614 12 8 12.2239 8 12.5C8 12.7761 7.77614 13 7.5 13H3.5C3.22386 13 3 12.7761 3 12.5Z" fill="#536B4E"/>
<path fill-rule="evenodd" clip-rule="evenodd" d="M9 12.5C9 12.2239 9.22386 12 9.5 12H10.5C10.7761 12 11 12.2239 11 12.5C11 12.7761 10.7761 13 10.5 13H9.5C9.22386 13 9 12.7761 9 12.5Z" fill="#536B4E"/>
<path fill-rule="evenodd" clip-rule="evenodd" d="M3 14.5C3 14.2239 3.22386 14 3.5 14H10.5C10.7761 14 11 14.2239 11 14.5C11 14.7761 10.7761 15 10.5 15H3.5C3.22386 15 3 14.7761 3 14.5Z" fill="#536B4E"/>
</svg>
