<svg width="24" height="24" viewBox="0 0 24 24" fill="none" xmlns="http://www.w3.org/2000/svg">
<path d="M12 -1.93282e-08C5.37333 -1.93282e-08 0 5.37212 0 11.9997C0 18.6271 5.37333 24 12 24C18.628 24 24 18.6271 24 11.9997C24 5.37212 18.628 -1.93282e-08 12 -1.93282e-08ZM18.4456 17.606L17.4712 18.5831C17.2933 18.7556 16.7843 18.8679 16.7648 18.8679C13.6763 18.8951 10.7013 17.678 8.51173 15.4886C6.31573 13.2952 5.09547 10.3058 5.13387 7.20363C5.13387 7.20096 5.2456 6.70735 5.41467 6.53348L6.39867 5.55586C6.7504 5.19718 7.44427 5.03051 7.9232 5.19505L8.1296 5.26065C8.6064 5.42625 9.1104 5.9548 9.24213 6.44521L9.73653 8.24738C9.8664 8.73913 9.6872 9.43648 9.33173 9.79462L8.68107 10.448C9.32133 12.8192 11.1811 14.6835 13.5509 15.3233L14.2093 14.6718C14.5653 14.3118 15.2643 14.132 15.7528 14.2656L17.5595 14.7569C18.0493 14.8923 18.5747 15.3918 18.7349 15.8753L18.8069 16.0836C18.9659 16.5622 18.8069 17.2487 18.4456 17.606Z" fill="#666666"/>
</svg>
