<svg width="16" height="20" viewBox="0 0 16 20" fill="none" xmlns="http://www.w3.org/2000/svg">
<path fill-rule="evenodd" clip-rule="evenodd" d="M7.60386 8C8.15614 8 8.60386 7.55228 8.60386 7C8.60386 6.44772 8.15614 6 7.60386 6C7.05157 6 6.60386 6.44772 6.60386 7C6.60386 7.55228 7.05157 8 7.60386 8ZM7.60386 10C9.26071 10 10.6039 8.65685 10.6039 7C10.6039 5.34315 9.26071 4 7.60386 4C5.947 4 4.60386 5.34315 4.60386 7C4.60386 8.65685 5.947 10 7.60386 10Z" fill="#536B4E"/>
<path d="M6.60386 1C6.60386 0.447715 7.05157 0 7.60386 0C8.15614 0 8.60386 0.447715 8.60386 1V4C8.60386 4.55228 8.15614 5 7.60386 5C7.05157 5 6.60386 4.55228 6.60386 4V1Z" fill="#536B4E"/>
<path fill-rule="evenodd" clip-rule="evenodd" d="M0.172449 12.7472C0.312045 12.509 0.618357 12.429 0.856617 12.5686C3.53959 14.1405 5.56684 14.9024 7.56747 14.9123C9.56677 14.9222 11.6186 14.1813 14.3497 12.5694C14.5875 12.429 14.8941 12.5081 15.0345 12.7459C15.1748 12.9837 15.0958 13.2902 14.858 13.4306C12.0679 15.0773 9.82849 15.9235 7.56252 15.9123C5.29789 15.9011 3.08578 15.0337 0.351095 13.4314C0.112836 13.2918 0.0328529 12.9855 0.172449 12.7472Z" fill="#536B4E"/>
<path fill-rule="evenodd" clip-rule="evenodd" d="M8.99147 8.68416C9.20555 8.50973 9.48629 8.56485 9.61852 8.80727L15.1397 18.9294C15.2719 19.1718 15.2055 19.5097 14.9915 19.6842C14.7774 19.8586 14.4967 19.8035 14.3644 19.5611L8.84328 9.43895C8.71105 9.19652 8.7774 8.8586 8.99147 8.68416Z" fill="#536B4E"/>
<path fill-rule="evenodd" clip-rule="evenodd" d="M6.21624 8.68416C6.00216 8.50973 5.72143 8.56485 5.58919 8.80727L0.0680466 18.9294C-0.0641846 19.1718 0.0021628 19.5097 0.216238 19.6842C0.430313 19.8586 0.71105 19.8035 0.843282 19.5611L6.36443 9.43895C6.49666 9.19652 6.43031 8.8586 6.21624 8.68416Z" fill="#536B4E"/>
</svg>
