<svg width="17" height="18" viewBox="0 0 17 18" fill="none" xmlns="http://www.w3.org/2000/svg">
<path fill-rule="evenodd" clip-rule="evenodd" d="M13.3803 7H2.58084L1.00026 12.5785L15.4396 16.5937L13.3803 7ZM2.58084 6C2.13354 6 1.74064 6.29704 1.61871 6.7274L0.0381339 12.3059C-0.112939 12.8391 0.198422 13.3935 0.732352 13.5419L15.1717 17.5572C15.8959 17.7585 16.5751 17.1188 16.4173 16.3838L14.358 6.79013C14.2591 6.32922 13.8517 6 13.3803 6H2.58084Z" fill="#536B4E"/>
<path fill-rule="evenodd" clip-rule="evenodd" d="M13.9791 6.54854C14.2284 6.66723 14.3343 6.96557 14.2156 7.2149C14.072 7.51657 13.923 7.8041 13.7669 8.07775C13.63 8.31762 13.3247 8.40114 13.0848 8.26432C12.8449 8.1275 12.7614 7.82213 12.8982 7.58227C13.0408 7.3324 13.1785 7.06701 13.3127 6.78509C13.4314 6.53575 13.7297 6.42985 13.9791 6.54854ZM12.5853 8.97787C12.7896 9.16365 12.8046 9.47987 12.6188 9.68418C12.1646 10.1837 11.6561 10.6079 11.076 10.9629C10.8405 11.107 10.5327 11.033 10.3886 10.7975C10.2444 10.5619 10.3185 10.2541 10.554 10.11C11.0512 9.80565 11.4868 9.44269 11.879 9.0114C12.0647 8.8071 12.381 8.79208 12.5853 8.97787ZM9.59011 11.1481C9.67423 11.4112 9.52921 11.6926 9.26619 11.7767C8.68929 11.9612 8.06104 12.1051 7.37389 12.2143C7.10117 12.2576 6.84496 12.0717 6.80162 11.799C6.75828 11.5262 6.94424 11.27 7.21696 11.2267C7.86347 11.124 8.44124 10.9906 8.96156 10.8242C9.22458 10.7401 9.50599 10.8851 9.59011 11.1481ZM5.93567 11.8896C5.95437 12.1651 5.74619 12.4036 5.47068 12.4223C4.8782 12.4625 4.24739 12.4863 3.57483 12.4955C3.29871 12.4993 3.0718 12.2786 3.06801 12.0024C3.06422 11.7263 3.28498 11.4994 3.5611 11.4956C4.219 11.4866 4.83151 11.4634 5.40295 11.4246C5.67846 11.4059 5.91696 11.6141 5.93567 11.8896ZM0.264419 11.9471C0.273212 11.6711 0.504085 11.4545 0.780088 11.4633C1.0987 11.4734 1.40902 11.4815 1.71134 11.4875C1.98743 11.493 2.20679 11.7213 2.2013 11.9974C2.19582 12.2735 1.96755 12.4928 1.69147 12.4874C1.38482 12.4813 1.0705 12.473 0.748243 12.4627C0.47224 12.454 0.255625 12.2231 0.264419 11.9471Z" fill="#536B4E"/>
<path fill-rule="evenodd" clip-rule="evenodd" d="M8.76416 4H4.76416V6H8.76416V4ZM3.76416 3V7H9.76416V3H3.76416Z" fill="#536B4E"/>
<path fill-rule="evenodd" clip-rule="evenodd" d="M2.76416 4L10.7642 4L6.76416 0L2.76416 4ZM5.17837 3L8.34995 3L6.76416 1.41421L5.17837 3Z" fill="#536B4E"/>
</svg>
