<svg width="18" height="14" viewBox="0 0 18 14" fill="none" xmlns="http://www.w3.org/2000/svg">
<path fill-rule="evenodd" clip-rule="evenodd" d="M4 0H18V13C18 13.5523 17.5523 14 17 14H0V4L4 0ZM1 4.41421V13H17V1H4.41421L1 4.41421Z" fill="#536B4E"/>
<path fill-rule="evenodd" clip-rule="evenodd" d="M4 5H0V4H4V5Z" fill="#536B4E"/>
<path fill-rule="evenodd" clip-rule="evenodd" d="M4 5V0H5V5H4Z" fill="#536B4E"/>
<path fill-rule="evenodd" clip-rule="evenodd" d="M15 7H9V10H15V7ZM8 6V11H15C15.5523 11 16 10.5523 16 10V6H8Z" fill="#536B4E"/>
<path fill-rule="evenodd" clip-rule="evenodd" d="M8 7H6V10H8V7ZM6 6C5.44772 6 5 6.44772 5 7V10C5 10.5523 5.44772 11 6 11H8C8.55228 11 9 10.5523 9 10V7C9 6.44772 8.55228 6 8 6H6Z" fill="#536B4E"/>
<path fill-rule="evenodd" clip-rule="evenodd" d="M15 7H13V10H15V7ZM13 6C12.4477 6 12 6.44772 12 7V10C12 10.5523 12.4477 11 13 11H15C15.5523 11 16 10.5523 16 10V7C16 6.44772 15.5523 6 15 6H13Z" fill="#536B4E"/>
<path fill-rule="evenodd" clip-rule="evenodd" d="M15 4H12V6H15V4ZM12 3C11.4477 3 11 3.44772 11 4V6C11 6.55228 11.4477 7 12 7H15C15.5523 7 16 6.55228 16 6V4C16 3.44772 15.5523 3 15 3H12Z" fill="#536B4E"/>
</svg>
