<svg width="18" height="19" viewBox="0 0 18 19" fill="none" xmlns="http://www.w3.org/2000/svg">
<path fill-rule="evenodd" clip-rule="evenodd" d="M9 6C8.44772 6 8 6.44772 8 7V18C8 18.5523 8.44772 19 9 19C9.55228 19 10 18.5523 10 18V7C10 6.44772 9.55228 6 9 6Z" fill="#536B4E"/>
<path fill-rule="evenodd" clip-rule="evenodd" d="M12.5 19C12.7761 19 13 18.7761 13 18.5C13 18.2239 12.7761 18 12.5 18H5.5C5.22386 18 5 18.2239 5 18.5C5 18.7761 5.22386 19 5.5 19H12.5Z" fill="#536B4E"/>
<path fill-rule="evenodd" clip-rule="evenodd" d="M0 6.5C1.20706e-08 6.77614 0.223858 7 0.5 7L17.5 7C17.7761 7 18 6.77614 18 6.5C18 6.22386 17.7761 6 17.5 6M0 6.5C-1.20706e-08 6.22386 0.223857 6 0.5 6L0 6.5ZM0.5 6L17.5 6L0.5 6Z" fill="#536B4E"/>
<path fill-rule="evenodd" clip-rule="evenodd" d="M12 14C12.2808 15.1411 13.5038 16 14.97 16C16.4362 16 17.6592 15.1411 17.94 14H12Z" fill="#536B4E"/>
<path fill-rule="evenodd" clip-rule="evenodd" d="M2.18556e-08 14C0.236363 15.1411 1.26583 16 2.5 16C3.73417 16 4.76364 15.1411 5 14H2.18556e-08Z" fill="#536B4E"/>
<path fill-rule="evenodd" clip-rule="evenodd" d="M11 4H7V6H11V4ZM6 3V7H12V3H6Z" fill="#536B4E"/>
<path fill-rule="evenodd" clip-rule="evenodd" d="M5 4L13 4L9 0L5 4ZM7.41421 3L10.5858 3L9 1.41421L7.41421 3Z" fill="#536B4E"/>
<path fill-rule="evenodd" clip-rule="evenodd" d="M0.364189 14.4807C0.102384 14.3919 -0.0490203 14.1047 0.0260188 13.8393L0.143637 13.4232C0.218676 13.1578 0.491742 13.0146 0.753548 13.1034C1.01535 13.1922 1.16676 13.4794 1.09172 13.7448L0.974099 14.1608C0.89906 14.4263 0.625994 14.5695 0.364189 14.4807ZM1.18752 11.5684C0.925713 11.4796 0.774309 11.1924 0.849348 10.927L1.08458 10.0949C1.15962 9.82951 1.43269 9.68632 1.69449 9.77512C1.9563 9.86391 2.1077 10.1511 2.03266 10.4165L1.79743 11.2486C1.72239 11.514 1.44932 11.6572 1.18752 11.5684ZM2.12847 8.24008C1.86666 8.15128 1.71526 7.86413 1.7903 7.5987L1.90791 7.18266C1.98295 6.91724 2.25602 6.77405 2.51782 6.86285C2.77963 6.95164 2.93103 7.2388 2.85599 7.50422L2.73838 7.92026C2.66334 8.18569 2.39027 8.32888 2.12847 8.24008Z" fill="#536B4E"/>
<path fill-rule="evenodd" clip-rule="evenodd" d="M4.63327 14.4815C4.89548 14.3941 5.04834 14.1078 4.9747 13.8419L4.85949 13.4258C4.78585 13.1599 4.5136 13.0152 4.2514 13.1026C3.98919 13.1899 3.83633 13.4763 3.90997 13.7422L4.02518 14.1583C4.09882 14.4242 4.37107 14.5689 4.63327 14.4815ZM3.82677 11.5692C4.08897 11.4819 4.24183 11.1955 4.1682 10.9296L3.93777 10.0975C3.86413 9.83161 3.59188 9.68689 3.32968 9.77426C3.06747 9.86164 2.91461 10.148 2.98825 10.4139L3.21868 11.246C3.29231 11.5119 3.56456 11.6566 3.82677 11.5692ZM2.90505 8.24094C3.16725 8.15356 3.32011 7.86718 3.24648 7.60128L3.13126 7.18524C3.05762 6.91934 2.78537 6.77462 2.52317 6.86199C2.26097 6.94937 2.1081 7.23575 2.18174 7.50165L2.29695 7.91769C2.37059 8.18359 2.64284 8.32831 2.90505 8.24094Z" fill="#536B4E"/>
<path fill-rule="evenodd" clip-rule="evenodd" d="M12.3486 14.4765C12.0854 14.3929 11.9399 14.1117 12.0235 13.8485L12.1626 13.411C12.2463 13.1479 12.5274 13.0024 12.7906 13.086C13.0538 13.1697 13.1993 13.4508 13.1156 13.714L12.9765 14.1515C12.8929 14.4147 12.6117 14.5602 12.3486 14.4765ZM13.3221 11.414C13.059 11.3304 12.9134 11.0492 12.9971 10.786L13.2753 9.91103C13.3589 9.64787 13.6401 9.50235 13.9032 9.58601C14.1664 9.66967 14.3119 9.95083 14.2283 10.214L13.9501 11.089C13.8664 11.3522 13.5853 11.4977 13.3221 11.414ZM14.4348 7.91402C14.1716 7.83036 14.0261 7.5492 14.1097 7.28603L14.2488 6.84853C14.3325 6.58537 14.6136 6.43985 14.8768 6.52351C15.14 6.60717 15.2855 6.88833 15.2018 7.15149L15.0627 7.58899C14.9791 7.85216 14.6979 7.99767 14.4348 7.91402Z" fill="#536B4E"/>
<path fill-rule="evenodd" clip-rule="evenodd" d="M17.6669 14.4671C17.921 14.3537 18.0523 14.0527 17.9602 13.7947L17.8039 13.3572C17.7118 13.0991 17.4311 12.9819 17.1769 13.0953C16.9228 13.2087 16.7914 13.5097 16.8836 13.7678L17.0398 14.2053C17.132 14.4633 17.4127 14.5805 17.6669 14.4671ZM16.5731 11.4046C16.8272 11.2912 16.9586 10.9902 16.8664 10.7322L16.5539 9.85715C16.4618 9.59914 16.181 9.4819 15.9269 9.59529C15.6727 9.70867 15.5414 10.0097 15.6336 10.2678L15.9461 11.1428C16.0382 11.4008 16.3189 11.518 16.5731 11.4046ZM15.3231 7.90463C15.5772 7.79124 15.7085 7.49017 15.6164 7.23215L15.4601 6.79465C15.368 6.53664 15.0873 6.4194 14.8331 6.53279C14.579 6.64617 14.4476 6.94725 14.5398 7.20526L14.696 7.64276C14.7882 7.90077 15.0689 8.01801 15.3231 7.90463Z" fill="#536B4E"/>
<path d="M8 4H10V5H8V4Z" fill="#536B4E"/>
</svg>
