<svg width="32" height="32" viewBox="0 0 32 32" fill="none" xmlns="http://www.w3.org/2000/svg">
<mask id="mask0" mask-type="alpha" maskUnits="userSpaceOnUse" x="0" y="0" width="32" height="32">
<rect width="32" height="32" rx="16" fill="#1A8246"/>
</mask>
<g mask="url(#mask0)">
<rect x="-5.79053" y="11.2762" width="41.4476" height="23.4667" rx="11.7333" fill="#07C307"/>
<g filter="url(#filter0_d)">
<path d="M4.2666 26.0571C-0.260467 22.4007 0.702019 17.4858 -2.53805 5.55253C-3.76861 1.02034 -3.42704 -4.59395 1.13526 -5.70769C5.93033 -6.87826 11.2632 -5.09831 11.4285 -5.18095C11.7333 -5.33333 26.5142 -6.39999 26.819 -6.39999C26.9617 -6.39999 30.3822 -3.82502 34.1725 -0.935621C38.851 2.6309 41.372 8.52343 40.784 14.3769C40.2926 19.2687 39.5802 23.7514 37.9428 23.4667C34.438 22.8571 32.3047 16.4571 20.2666 25.1429C15.0824 28.8834 8.2285 29.2571 4.2666 26.0571Z" fill="#07D707"/>
</g>
<g filter="url(#filter1_d)">
<path d="M6.40006 18.5905C4.30718 15.8536 4.63804 10.4804 4.76457 5.21126C4.91131 -0.899706 8.7041 -8.5425 14.1715 -11.2762C14.4763 -11.4286 29.2572 -12.4952 29.562 -12.4952C29.7047 -12.4952 33.1252 -9.92026 36.9155 -7.03087C41.594 -3.46435 44.076 2.45513 42.4018 8.09478C41.2488 11.979 39.7897 15.2015 38.2477 14.9333C34.7429 14.3238 28.6477 16.0344 23.0096 19.0476C17.3715 22.0609 10.362 23.7714 6.40006 18.5905Z" fill="#DCB62F"/>
</g>
<g filter="url(#filter2_d)">
<path d="M10.5143 10.6667C8.42997 5.54272 10.8003 -1.01663 11.7578 -6.30326C12.3996 -9.84704 14.9121 -17.2846 18.1333 -18.8952C18.4381 -19.0476 33.219 -20.1143 33.5238 -20.1143C33.6665 -20.1143 37.0871 -17.5393 40.8773 -14.6499C45.5559 -11.0834 48.1646 -5.17811 48.4051 0.699873C48.6046 5.57713 48.719 10.0364 47.0857 9.75238C43.581 9.14285 34.8952 8.83809 26.819 12.6476C21.0372 15.3749 12.9718 16.7081 10.5143 10.6667Z" fill="#EFC531"/>
</g>
</g>
<defs>
<filter id="filter0_d" x="-7.15039" y="-6.39999" width="52.0186" height="42.6251" filterUnits="userSpaceOnUse" color-interpolation-filters="sRGB">
<feFlood flood-opacity="0" result="BackgroundImageFix"/>
<feColorMatrix in="SourceAlpha" type="matrix" values="0 0 0 0 0 0 0 0 0 0 0 0 0 0 0 0 0 0 127 0"/>
<feOffset dy="4"/>
<feGaussianBlur stdDeviation="2"/>
<feColorMatrix type="matrix" values="0 0 0 0 0 0 0 0 0 0 0 0 0 0 0 0 0 0 0.25 0"/>
<feBlend mode="normal" in2="BackgroundImageFix" result="effect1_dropShadow"/>
<feBlend mode="normal" in="SourceGraphic" in2="effect1_dropShadow" result="shape"/>
</filter>
<filter id="filter1_d" x="0.66626" y="-12.4952" width="46.2586" height="42.4048" filterUnits="userSpaceOnUse" color-interpolation-filters="sRGB">
<feFlood flood-opacity="0" result="BackgroundImageFix"/>
<feColorMatrix in="SourceAlpha" type="matrix" values="0 0 0 0 0 0 0 0 0 0 0 0 0 0 0 0 0 0 127 0"/>
<feOffset dy="4"/>
<feGaussianBlur stdDeviation="2"/>
<feColorMatrix type="matrix" values="0 0 0 0 0 0 0 0 0 0 0 0 0 0 0 0 0 0 0.25 0"/>
<feBlend mode="normal" in2="BackgroundImageFix" result="effect1_dropShadow"/>
<feBlend mode="normal" in="SourceGraphic" in2="effect1_dropShadow" result="shape"/>
</filter>
<filter id="filter2_d" x="5.68164" y="-20.1143" width="46.835" height="43.0642" filterUnits="userSpaceOnUse" color-interpolation-filters="sRGB">
<feFlood flood-opacity="0" result="BackgroundImageFix"/>
<feColorMatrix in="SourceAlpha" type="matrix" values="0 0 0 0 0 0 0 0 0 0 0 0 0 0 0 0 0 0 127 0"/>
<feOffset dy="4"/>
<feGaussianBlur stdDeviation="2"/>
<feColorMatrix type="matrix" values="0 0 0 0 0 0 0 0 0 0 0 0 0 0 0 0 0 0 0.25 0"/>
<feBlend mode="normal" in2="BackgroundImageFix" result="effect1_dropShadow"/>
<feBlend mode="normal" in="SourceGraphic" in2="effect1_dropShadow" result="shape"/>
</filter>
</defs>
</svg>
